<?xml version="1.0" encoding="UTF-8" standalone="no"?>
<!DOCTYPE svg PUBLIC "-//W3C//DTD SVG 1.1//EN" "http://www.w3.org/Graphics/SVG/1.1/DTD/svg11.dtd">
<svg version="1.1" xmlns="http://www.w3.org/2000/svg" xmlns:xlink="http://www.w3.org/1999/xlink" preserveAspectRatio="xMidYMid meet" viewBox="0 0 640 640" width="512" height="512"><defs><path d="M50.99 589.01C118.97 656.99 229.19 656.99 297.17 589.01C306.9 579.28 355.54 530.64 443.09 443.09L320 282.47L50.99 589.01C50.99 589.01 50.99 589.01 50.99 589.01Z" id="ajfJWTA2d"></path><path d="M50.99 342.83C-17 410.81 -17 521.03 50.99 589.01C50.99 589.01 50.99 589.01 50.99 589.01L349.17 290.83L196.91 196.91C109.35 284.46 60.72 333.1 50.99 342.83Z" id="b3X74pKa"></path><path d="M412.08 169.58L320 320L443.09 443.09C530.64 355.54 579.28 306.9 589.01 297.18C657 229.19 657 118.97 589.01 50.99C589.01 50.99 589.01 50.99 589.01 50.99L412.08 169.58Z" id="b2snwddzRg"></path><path d="M589.01 50.99C521.03 -17 410.81 -17 342.83 50.99C333.1 60.72 284.46 109.35 196.91 196.91L320 320L589.01 50.99C589.01 50.99 589.01 50.99 589.01 50.99Z" id="a1zWfZFEks"></path></defs><g><g><g><use xlink:href="#ajfJWTA2d" opacity="1" fill="#de4848" fill-opacity="1"></use><g><use xlink:href="#ajfJWTA2d" opacity="1" fill-opacity="0" stroke="#000000" stroke-width="1" stroke-opacity="0"></use></g></g><g><use xlink:href="#b3X74pKa" opacity="1" fill="#db6f70" fill-opacity="1"></use><g><use xlink:href="#b3X74pKa" opacity="1" fill-opacity="0" stroke="#000000" stroke-width="1" stroke-opacity="0"></use></g></g><g><use xlink:href="#b2snwddzRg" opacity="1" fill="#f01429" fill-opacity="1"></use><g><use xlink:href="#b2snwddzRg" opacity="1" fill-opacity="0" stroke="#000000" stroke-width="1" stroke-opacity="0"></use></g></g><g><use xlink:href="#a1zWfZFEks" opacity="1" fill="#ed3131" fill-opacity="1"></use><g><use xlink:href="#a1zWfZFEks" opacity="1" fill-opacity="0" stroke="#000000" stroke-width="1" stroke-opacity="0"></use></g></g></g></g></svg>