<?xml version="1.0" encoding="UTF-8" standalone="no"?>
<!DOCTYPE svg PUBLIC "-//W3C//DTD SVG 1.1//EN" "http://www.w3.org/Graphics/SVG/1.1/DTD/svg11.dtd">
<svg version="1.1" xmlns="http://www.w3.org/2000/svg" xmlns:xlink="http://www.w3.org/1999/xlink" preserveAspectRatio="xMidYMid meet" viewBox="0 0 640 640" width="512" height="512"><defs><path d="M50.99 589.01C118.97 657 229.19 657 297.17 589.01C306.9 579.28 355.54 530.65 443.09 443.09L320 282.47L50.99 589.01C50.99 589.01 50.99 589.01 50.99 589.01Z" id="i32pm4u4xC"></path><path d="M50.99 342.83C-17 410.81 -17 521.03 50.99 589.01C50.99 589.01 50.99 589.01 50.99 589.01L349.17 290.83L196.91 196.91C109.35 284.46 60.72 333.1 50.99 342.83Z" id="anmhN3djF"></path><path d="M412.08 169.58L320 320L443.09 443.09C530.64 355.54 579.28 306.9 589.01 297.18C657 229.19 657 118.97 589.01 50.99C589.01 50.99 589.01 50.99 589.01 50.99L412.08 169.58Z" id="c1gzFXO5GJ"></path><path d="M589.01 50.99C521.03 -17 410.81 -17 342.83 50.99C333.1 60.72 284.46 109.35 196.91 196.91L320 320L589.01 50.99C589.01 50.99 589.01 50.99 589.01 50.99Z" id="aFba5bfxt"></path></defs><g><g><g><use xlink:href="#i32pm4u4xC" opacity="1" fill="#56dbd5" fill-opacity="1"></use><g><use xlink:href="#i32pm4u4xC" opacity="1" fill-opacity="0" stroke="#000000" stroke-width="1" stroke-opacity="0"></use></g></g><g><use xlink:href="#anmhN3djF" opacity="1" fill="#8aeeff" fill-opacity="1"></use><g><use xlink:href="#anmhN3djF" opacity="1" fill-opacity="0" stroke="#000000" stroke-width="1" stroke-opacity="0"></use></g></g><g><use xlink:href="#c1gzFXO5GJ" opacity="1" fill="#0072ff" fill-opacity="1"></use><g><use xlink:href="#c1gzFXO5GJ" opacity="1" fill-opacity="0" stroke="#000000" stroke-width="1" stroke-opacity="0"></use></g></g><g><use xlink:href="#aFba5bfxt" opacity="1" fill="#0aabff" fill-opacity="1"></use><g><use xlink:href="#aFba5bfxt" opacity="1" fill-opacity="0" stroke="#000000" stroke-width="1" stroke-opacity="0"></use></g></g></g></g></svg>