<svg id="Capa_1" enable-background="new 0 0 512 512" height="512" viewBox="0 0 512 512" width="512" xmlns="http://www.w3.org/2000/svg"><g><g><path d="m490.227 392.609c0 72.126-101.699 98.891-234.227 98.891s-234.229-26.768-234.229-98.894v-198.012h468.459z" fill="#6a647f"/><path d="m53.412 280.714c0-29.711 5.341-58.697 15.182-86.12h-46.823v198.011c0 52.525 53.944 80.99 134.442 92.585-63.121-50.396-102.801-123.333-102.801-204.476z" fill="#5c586f"/><path d="m21.771 194.594c-19.028-16.852-19.028-46.551-.001-63.404l.003-.002.454-9.027c1.102-21.886 18.718-39.317 40.615-40.186h.002c6.008-.239 11.445-3.626 14.308-8.913l2.204-4.071c9.435-17.428 29.696-25.982 48.766-20.589l3.794 1.073c6.215 1.758 12.89-.15 17.238-4.927l3.497-3.843c12.933-14.211 33.813-17.933 50.86-9.067l4.418 2.298c5.851 3.043 12.933 2.436 18.181-1.558l4.242-3.229c15.154-11.533 36.142-11.532 51.295.001l4.239 3.227c5.248 3.994 12.33 4.601 18.181 1.558l4.419-2.298c17.047-8.866 37.926-5.144 50.859 9.065l3.501 3.846c4.347 4.776 11.022 6.684 17.236 4.927l3.801-1.075c19.07-5.392 39.329 3.162 48.763 20.59l2.206 4.075c2.862 5.287 8.3 8.675 14.307 8.913 21.897.87 39.513 18.302 40.614 40.188l.454 9.025c19.027 16.852 19.028 46.552.001 63.404l-.003.002c0 72.126-101.699 98.891-234.227 98.891s-234.227-26.768-234.227-98.894z" fill="#dcdcdc"/><g><g><g><ellipse cx="142.329" cy="399.957" fill="#ff8997" rx="41.942" ry="33.401"/></g><g><ellipse cx="369.671" cy="399.957" fill="#ff8997" rx="41.942" ry="33.401"/></g></g></g><path d="m256 113.135c38.538 0 72.359 10.699 91.447 26.806 10.433 8.783 16.469 19.194 16.469 30.34 0 22.09-23.666 41.252-58.307 50.759l-49.609-54.293z" fill="#ff6f7f"/><path d="m206.391 221.041c-34.641-9.507-58.307-28.669-58.307-50.759 0-11.146 6.036-21.558 16.469-30.34 19.088-16.107 52.91-26.806 91.447-26.806 0 0 23.591 20.206 0 53.612z" fill="#60d9a7"/><path d="m305.609 191.722v29.318c-14.851 4.088-31.724 6.387-49.609 6.387s-34.758-2.3-49.609-6.387v-29.318c0-15.511 13.403-27.626 28.818-26.029 6.728.692 13.68 1.054 20.791 1.054s14.063-.362 20.791-1.054c15.415-1.596 28.818 10.519 28.818 26.029z" fill="#ffca8a"/><path d="m209.339 34.58c-.476-.195-.948-.404-1.409-.644l-4.418-2.298c-17.047-8.866-37.927-5.144-50.86 9.067l-3.497 3.843c-4.348 4.777-11.023 6.685-17.238 4.927l-3.794-1.073c-19.071-5.393-39.331 3.161-48.766 20.589l-2.204 4.071c-2.862 5.288-8.3 8.675-14.308 8.914h-.002c-21.896.87-39.513 18.3-40.615 40.186l-.454 9.027-.003.002c-19.027 16.853-19.026 46.552.001 63.404 0 24.777 12.002 44.2 33.132 59.026 9.963-91.297 69.556-173.014 154.435-219.041z" fill="#cececc"/></g><g><path d="m174.271 367.79v-17.146c0-4.142-3.358-7.5-7.5-7.5s-7.5 3.358-7.5 7.5v17.146c0 4.142 3.358 7.5 7.5 7.5s7.5-3.358 7.5-7.5z"/><path d="m352.729 367.79v-17.146c0-4.142-3.358-7.5-7.5-7.5s-7.5 3.358-7.5 7.5v17.146c0 4.142 3.358 7.5 7.5 7.5s7.5-3.358 7.5-7.5z"/><path d="m256 385.497c11.183 0 21.818-4.844 29.179-13.289 2.722-3.123 2.397-7.86-.726-10.582-3.123-2.721-7.86-2.397-10.582.726-4.511 5.176-11.025 8.145-17.871 8.145s-13.359-2.969-17.87-8.145c-2.722-3.123-7.459-3.448-10.582-.727s-3.448 7.459-.727 10.582c7.36 8.446 17.995 13.29 29.179 13.29z"/><path d="m497.575 127.795-.303-6.027c-1.305-25.938-21.858-46.275-47.808-47.306-3.346-.133-6.416-2.045-8.01-4.99l-2.206-4.075c-11.186-20.663-34.79-30.63-57.4-24.237l-3.801 1.075c-3.502.989-7.2-.066-9.65-2.758l-3.501-3.847c-15.207-16.707-39.824-21.095-59.868-10.671l-4.419 2.298c-3.259 1.695-7.254 1.353-10.178-.873l-4.239-3.227c-17.775-13.529-42.605-13.529-60.381-.001l-4.242 3.229c-2.924 2.225-6.92 2.567-10.178.873l-4.419-2.299c-20.043-10.425-44.663-6.036-59.869 10.673l-3.497 3.842c-2.45 2.692-6.148 3.749-9.651 2.758l-3.794-1.073c-22.615-6.394-46.218 3.572-57.404 24.236l-2.205 4.072c-2.705 4.997-7.912 4.958-8.012 4.99-25.949 1.03-46.503 21.367-47.808 47.304l-.304 6.028c-19.17 19.354-19.248 50.542-.163 69.994v194.806c0 44.088 34.064 69.963 75.781 84.788 3.935 1.399 8.204-.685 9.579-4.556 1.387-3.903-.652-8.192-4.555-9.579-43.665-15.518-65.804-39.289-65.804-70.654v-152.809c41.772 54.43 158.196 61.192 226.735 61.192 37.125 0 70.645-2.098 99.86-6.244 1.532-.217 11.71-1.711 13.004-2.068 2.932-.807 5.04-3.299 5.434-6.224.675-5.002-3.695-9.242-8.685-8.4-31.142 5.266-68.022 7.936-109.614 7.936-81.209 0-226.735-10.613-226.735-91.396 0-2.044-.842-4.039-2.388-5.477-16.927-15.89-14.683-39.411-.165-52.294 1.523-1.335 2.442-3.232 2.545-5.261l.455-9.027c.923-18.35 15.524-32.381 33.425-33.07 8.609-.342 16.505-5.261 20.606-12.837l2.205-4.071c7.821-14.446 24.322-21.413 40.13-16.943l3.794 1.072c9.01 2.548 18.523-.17 24.827-7.096l3.497-3.843c10.631-11.68 27.842-14.748 41.853-7.461l4.419 2.299c8.384 4.359 18.662 3.48 26.184-2.244l4.242-3.229c12.427-9.457 29.785-9.457 42.212.001l4.239 3.226c7.522 5.725 17.8 6.606 26.185 2.244l4.419-2.298c14.011-7.287 31.222-4.22 41.853 7.46l3.501 3.847c6.302 6.924 15.813 9.644 24.824 7.095l3.801-1.074c15.806-4.469 32.307 2.498 40.128 16.944l2.207 4.075c4.102 7.576 11.997 12.495 20.605 12.837 18.142.721 32.51 14.938 33.422 33.072l.454 9.025c.102 2.013 1.009 3.901 2.518 5.238 15.636 13.848 15.653 38.286.025 52.155-1.555 1.369-2.555 3.443-2.555 5.639 0 36.337-29.518 62.341-87.733 77.291-4.012 1.03-6.429 5.118-5.399 9.13s5.119 6.427 9.13 5.399c30.628-7.864 64.876-21.609 84.005-46.769l-.002 152.965c0 80.783-145.529 91.393-226.733 91.393-52.088 0-96.415-4.151-131.749-12.336-4.033-.933-8.064 1.579-8.999 5.614-.935 4.036 1.579 8.065 5.614 9 36.443 8.442 81.909 12.723 135.135 12.723 93.174 0 241.733-13.239 241.733-106.394l.003-194.809c19.078-19.446 19.011-50.63-.162-69.991z"/><path d="m352.28 134.183c-21.205-17.889-57.196-28.569-96.279-28.569-39.088 0-75.083 10.682-96.28 28.57-12.521 10.54-19.14 23.016-19.14 36.079 0 24.966 24.452 47.186 63.815 57.99.001 0 .002.001.003.001 32.281 8.886 70.884 8.894 103.195.002h.002c.001 0 .002-.001.003-.001s.002 0 .002-.001h.001c39.365-10.804 63.818-33.025 63.818-57.991-.001-13.063-6.619-25.539-19.14-36.08zm-196.699 36.079c0-10.733 7.504-19.304 13.807-24.609 17.746-14.975 49.484-24.45 83.413-25.012 1.471 1.8 3.574 4.881 4.902 9.035 3.258 10.192-.033 20.419-5.697 29.496-5.358-.106-10.694-.412-16.025-.96-.001 0-.002 0-.003 0s-.002 0-.002 0c-20.258-1.976-37.086 13.848-37.086 33.491v19.13c-26.612-9.35-43.309-24.737-43.309-40.571zm58.309 44.934v-23.493c0-10.005 7.731-17.888 17.165-18.599 4.475-.335 20.607 2.694 46.51.03 10.782-1.109 20.545 7.279 20.545 18.569v23.493c-13.129 3.091-27.564 4.714-42.11 4.714s-28.981-1.623-42.11-4.714zm99.221-4.363v-19.13c0-9.331-3.78-18.219-11.137-25.027-11.481-10.331-21.707-8.645-32.75-7.904 5.437-12.233 6.644-25.286 1.285-37.611 50.368 3.809 72.21 24.55 72.11 24.498 6.296 5.299 13.8 13.87 13.8 24.603 0 15.834-16.697 31.222-43.308 40.571z"/></g></g></svg>