<svg id="Capa_1" enable-background="new 0 0 497 497" height="512" viewBox="0 0 497 497" width="512" xmlns="http://www.w3.org/2000/svg"><g><g><path d="m443.998 302.609c12.67-14.152 12.667-35.547 0-49.696 5.904-6.594 9.498-15.3 9.498-24.848 0-34.313-42.616-50.271-65.226-24.64-14.865-16.852-41.058-16.835-55.908 0-14.865-16.852-41.058-16.835-55.908 0-14.865-16.852-41.012-16.794-55.862.041l-20 20 .001 158.286 20 20c14.865 16.852 41.011 16.877 55.861.042 14.865 16.852 41.058 16.835 55.908 0 14.865 16.852 41.058 16.835 55.908 0 22.603 25.624 65.226 9.688 65.226-24.64 0-9.548-3.594-18.254-9.498-24.848 12.67-14.153 12.667-35.548 0-49.697z" fill="#efedff"/><path d="m220.593 352.304c-12.111-13.99-12.114-35.702 0-49.696-12.111-13.99-12.114-35.702 0-49.695-11.577-13.376-12.659-35.212 0-49.448-14.865-16.852-41.104-16.876-55.954-.041-14.865-16.852-41.058-16.835-55.908 0-22.603-25.624-65.226-9.687-65.226 24.64 0 9.548 3.594 18.254 9.498 24.848-12.67 14.152-12.667 35.548 0 49.696-12.67 14.152-12.667 35.547 0 49.696-5.904 6.594-9.498 15.3-9.498 24.848 0 34.313 42.616 50.271 65.226 24.64 14.865 16.852 41.058 16.835 55.908 0 14.865 16.852 41.105 16.793 55.955-.042-12.609-14.176-11.63-36.01-.001-49.446z" fill="#d4d4ff"/></g><g><g><path d="m479.427 178.222c-19.982-19.982-42.114-37.059-66.109-51.088l-49.989 33.657 30 101.069c27.293 26.842 64.45 22.863 86.098 1.215 23.43-23.432 23.43-61.422 0-84.853z" fill="#ffdbe0"/><path d="m41.428 277.696c20.774 6.744 44.495 1.881 60.999-14.622 21.764-21.764 47.531-38.066 75.637-48.234l87.506-33.286 22.26 24.743c39.637 7.599 76.129 26.671 105.499 55.562-2.96-46.943 4.341-92.64 19.989-134.726-21.909-12.81-45.767-23.341-71.46-31.004l-35.993 14.561-31.434-27.089c-24.396-1.916-49.408-1.228-75.182 2.676l-157.821 81.221z" fill="#ffb5c0"/></g><g fill="#ff8e9e"><path d="m199.25 86.277c-66.655 10.096-130.677 40.945-181.677 91.945-23.431 23.431-23.431 61.421 0 84.853 6.928 6.928 15.134 11.791 23.855 14.622 29.292-80.301 85.425-147.878 157.822-191.42z"/><path d="m341.858 96.129c-21.964-6.551-44.504-10.729-67.426-12.528-26.858 22.74-50.054 49.321-69.138 79.344-10.576 16.637-19.662 33.969-27.229 51.895 35.14-12.713 73.314-15.531 109.766-8.542 4.411-15.778 9.99-31.278 16.743-46.428 10.134-22.74 22.613-44.043 37.284-63.741z"/></g></g><g fill="#ff8e9e"><ellipse cx="168.943" cy="332.154" rx="29.355" ry="23.377"/><ellipse cx="328.056" cy="332.154" rx="29.355" ry="23.377"/></g><g fill="#313d40"><path d="m186.051 290.151c-4.143 0-7.5 3.358-7.5 7.5v12c0 4.142 3.357 7.5 7.5 7.5s7.5-3.358 7.5-7.5v-12c0-4.142-3.358-7.5-7.5-7.5z"/><path d="m310.948 290.151c-4.143 0-7.5 3.358-7.5 7.5v12c0 4.142 3.357 7.5 7.5 7.5s7.5-3.358 7.5-7.5v-12c0-4.142-3.357-7.5-7.5-7.5z"/><path d="m269.891 303.639c-3.125-2.721-7.861-2.396-10.582.727-2.729 3.132-6.669 4.928-10.81 4.928s-8.08-1.796-10.81-4.928c-2.723-3.123-7.46-3.447-10.582-.727-3.122 2.722-3.448 7.459-.727 10.582 5.579 6.401 13.641 10.073 22.118 10.073s16.539-3.671 22.118-10.073c2.724-3.123 2.397-7.86-.725-10.582z"/></g><g><circle cx="161.443" cy="255.392" fill="#9ea2e3" r="7.5"/><circle cx="191.443" cy="382.392" fill="#9ea2e3" r="7.5"/><g fill="#d4d4ff"><circle cx="241.443" cy="352.392" r="7.5"/><circle cx="331.443" cy="372.392" r="7.5"/><circle cx="401.443" cy="325.392" r="7.5"/><circle cx="419.443" cy="379.392" r="7.5"/><circle cx="269.443" cy="242.392" r="7.5"/></g><circle cx="101.443" cy="350.392" fill="#9ea2e3" r="7.5"/></g></g></svg>